<?xml version="1.0" encoding="UTF-8" standalone="no"?>
<svg
   clip-rule="evenodd"
   fill-rule="evenodd"
   stroke-linejoin="round"
   stroke-miterlimit="2"
   viewBox="0 0 32 32"
   version="1.1"
   id="svg1"
   sodipodi:docname="blacklist.svg"
   inkscape:version="1.3.2 (091e20e, 2023-11-25, custom)"
   xmlns:inkscape="http://www.inkscape.org/namespaces/inkscape"
   xmlns:sodipodi="http://sodipodi.sourceforge.net/DTD/sodipodi-0.dtd"
   xmlns="http://www.w3.org/2000/svg"
   xmlns:svg="http://www.w3.org/2000/svg">
  <defs
     id="defs1" />
  <sodipodi:namedview
     id="namedview1"
     pagecolor="#ffffff"
     bordercolor="#000000"
     borderopacity="0.25"
     inkscape:showpageshadow="2"
     inkscape:pageopacity="0.0"
     inkscape:pagecheckerboard="0"
     inkscape:deskcolor="#d1d1d1"
     inkscape:zoom="25.40625"
     inkscape:cx="15.98032"
     inkscape:cy="16"
     inkscape:window-width="1920"
     inkscape:window-height="1009"
     inkscape:window-x="-8"
     inkscape:window-y="-8"
     inkscape:window-maximized="1"
     inkscape:current-layer="svg1" />
  <g
     transform="translate(-111 -185)"
     id="g1"
     style="fill:#ffffff">
    <g
       id="solid"
       style="fill:#ffffff">
      <path
         d="m127.009 187.009c7.722 0 13.991 6.269 13.991 13.991s-6.269 13.991-13.991 13.991c-7.723 0-13.992-6.269-13.992-13.991s6.269-13.991 13.992-13.991zm7.741 4.836c-2.09-1.769-4.792-2.836-7.741-2.836-6.619 0-11.992 5.373-11.992 11.991 0 2.949 1.067 5.652 2.836 7.741zm-15.408 13.993c.318-2.704 2.037-4.983 4.411-6.09-.938-.873-1.524-2.118-1.524-3.499 0-2.638 2.141-4.78 4.78-4.78 1.813 0 3.391 1.012 4.201 2.501zm-.075 4.317c2.09 1.769 4.792 2.836 7.742 2.836 6.618 0 11.991-5.373 11.991-11.991 0-2.949-1.067-5.652-2.836-7.741zm11.541-10.126c2.34 1.327 3.921 3.84 3.921 6.72 0 1.081-.685 2.02-1.939 2.669-1.402.725-3.59 1.113-5.781 1.113-2.127 0-4.248-.365-5.654-1.049z"
         id="path1"
         style="fill:#ffffff" />
    </g>
  </g>
</svg>
