<?xml version="1.0" encoding="UTF-8" standalone="no"?>
<svg
   viewBox="0 0 32 32"
   width="512"
   height="512"
   version="1.1"
   id="svg1"
   sodipodi:docname="paper.svg"
   inkscape:version="1.3.2 (091e20e, 2023-11-25, custom)"
   xmlns:inkscape="http://www.inkscape.org/namespaces/inkscape"
   xmlns:sodipodi="http://sodipodi.sourceforge.net/DTD/sodipodi-0.dtd"
   xmlns="http://www.w3.org/2000/svg"
   xmlns:svg="http://www.w3.org/2000/svg">
  <defs
     id="defs1" />
  <sodipodi:namedview
     id="namedview1"
     pagecolor="#ffffff"
     bordercolor="#000000"
     borderopacity="0.25"
     inkscape:showpageshadow="2"
     inkscape:pageopacity="0.0"
     inkscape:pagecheckerboard="0"
     inkscape:deskcolor="#d1d1d1"
     inkscape:zoom="1.5878906"
     inkscape:cx="256"
     inkscape:cy="256"
     inkscape:window-width="1920"
     inkscape:window-height="1009"
     inkscape:window-x="-8"
     inkscape:window-y="-8"
     inkscape:window-maximized="1"
     inkscape:current-layer="svg1" />
  <g
     id="Layer_2"
     data-name="Layer 2"
     style="fill:#ffffff">
    <path
       d="M28,1H8.42A3.42,3.42,0,0,0,5,4.42V21H3.78A2.79,2.79,0,0,0,1,23.78v3C1,28.9,2.6,31,6.18,31H23.5A3.5,3.5,0,0,0,27,27.5V11h1.22A2.79,2.79,0,0,0,31,8.22V4A3,3,0,0,0,28,1ZM25,24V27.5a1.5,1.5,0,0,1-3,0V24a3.05,3.05,0,0,0-3-3H7V4.42A1.43,1.43,0,0,1,8.42,3H25.18A3,3,0,0,0,25,4V24Z"
       id="path1"
       style="fill:#ffffff" />
  </g>
</svg>
